<svg width="163.27" height="52" fill="none" xmlns="http://www.w3.org/2000/svg"><path d="m7.765 23.383 2.646-1.31 4.181-6.281 1.28-.524 1.365 6.37-1.792.261-1.365-2.617-1.024 4.1h4.523l4.693 1.222 1.877-1.221 3.158 3.315 1.365-6.107 2.219 2.268 1.365-1.92 2.219-.61 3.242-3.054.512-1.483 2.646.436 1.11 1.483L40.02 21.9l4.864-2.53v-1.221l1.878-.437 2.048 2.094 2.048-2.53V15.53l3.328-2.355 1.365-2.007h2.133l3.755-7.765L64.683 0l1.194 1.92L64 4.361l.683 1.57 1.792.35 1.45 6.456v5.41l2.56 3.577 1.28 4.973-4.437-2.88-1.963-8.288-1.194.262-.17 5.584-3.244 5.322-.938 8.114 2.218.524.94-1.135 2.132 2.443 1.622 7.33-.17 4.71h-2.049l-.768-6.63-1.45 2.006-3.158-.698-2.56-2.18-2.901 1.046.17 4.712-2.304.61-3.413 2.618-4.096-.524-1.621-.96-2.56.437.853 1.047-2.048 1.221-1.621-.785L33.963 52l-4.694-2.356-1.792-4.188-1.536.175-1.792-1.483-.085-1.135-5.717-.61-.939 3.14-3.584-1.657-1.792-3.054h-3.84l-.427 4.886-2.218.698-1.11 4.45-.853-.785L0 40.745l4.267-2.094-.683-4.1-.683-4.189 1.878-2.704L4.18 26l2.56-2.792zm56.747 10.295 3.925 5.933 1.28-.524-1.62-2.443-3.585-3.839zm-40.107-12.04v-1.745l2.987-2.182 2.56-1.308h-2.987l-2.645 1.57-1.621 1.483v2.182z" fill="#fff"/><g aria-label="Russia" style="font-size:29.3856px;line-height:1.25;font-family:Ramabhadra;-inkscape-font-specification:Ramabhadra;fill:#fff;stroke-width:1.00178"><path d="M89.831 40.783V23.546h7.316q3.393 0 5.054 1.029 1.696 1.028 1.696 3.795 0 4.15-4.559 4.823 1.767.923 3.817 4.221l2.12 3.37h-4.17l-3.71-5.569q-.566-.851-1.273-1.241-.672-.39-2.12-.39h-.707v7.2zm3.464-9.93h2.58q2.615 0 3.534-.426.919-.461.919-1.809 0-1.277-.778-1.702-.742-.461-3.534-.461h-2.721zM114.853 40.713v-1.88q-1.485 2.163-4.135 2.163-4.135 0-4.135-4.859v-7.909h3.287v5.746q0 2.695.388 3.617.425.887 1.661.887 1.59 0 2.12-.958.566-.957.566-4.043v-5.249h3.287v12.485ZM119.66 37.166l3.286-.532q.46 1.986 2.686 1.986 2.368 0 2.368-1.348 0-.78-1.343-1.064-4.56-1.028-5.549-2.021-.99-.994-.99-2.412 0-3.83 5.231-3.83 4.56 0 5.513 3.298l-3.11.567q-.388-1.49-2.332-1.49-2.227 0-2.227 1.03 0 .85 3.5 1.63 2.579.568 3.569 1.42 1.025.815 1.025 2.411 0 2.057-1.662 3.121-1.66 1.064-3.993 1.064-4.983 0-5.973-3.83zM132.594 37.166l3.287-.532q.46 1.986 2.686 1.986 2.368 0 2.368-1.348 0-.78-1.343-1.064-4.56-1.028-5.549-2.021-.99-.994-.99-2.412 0-3.83 5.231-3.83 4.56 0 5.513 3.298l-3.11.567q-.388-1.49-2.332-1.49-2.227 0-2.227 1.03 0 .85 3.5 1.63 2.579.568 3.569 1.42 1.024.815 1.024 2.411 0 2.057-1.66 3.121-1.662 1.064-3.994 1.064-4.983 0-5.973-3.83zM146.413 26.597v-3.05h3.286v3.05zm0 14.186V28.3h3.286v12.484zM154.93 32.023l-2.969-.532q.99-3.547 5.372-3.547 3.075 0 4.135 1.064 1.096 1.064 1.096 3.76l-.036 3.83q0 2.59.742 4.115h-3.251q-.177-.497-.424-1.348-1.697 1.631-3.852 1.631-1.838 0-3.004-.993-1.131-.993-1.131-2.695 0-1.348.742-2.341.742-.993 3.781-1.596 2.333-.426 3.216-.78v-.355q0-1.774-2.261-1.774-1.59 0-2.156 1.561zm4.417 2.696q-1.59.319-3.816 1.064-.637.46-.637 1.17 0 .816.566 1.277.565.425 1.272.425 2.615 0 2.615-3.263z"/></g></svg>